<svg width="601" height="900" viewBox="0 0 601 900" fill="none" xmlns="http://www.w3.org/2000/svg">
<path d="M404.968 340.409C404.968 310.69 372.191 320.163 366.612 322.025C361.034 323.887 348.018 281.065 348.018 281.065C348.018 281.065 281.078 275.479 268.062 288.512C268.062 288.512 264.343 344.367 266.203 379.742C268.062 415.117 279.414 429.977 292.43 429.977C296.546 429.746 300.591 428.8 304.385 427.182V492.303L383.12 451.44L373.423 374.514C373.822 374.28 374.05 374.157 374.05 374.157C374.05 374.157 404.968 368.476 404.968 340.409Z" fill="#F47D7D"/>
<path d="M265.682 330.091C265.682 330.091 261.141 309.473 252.419 304.294C240.427 297.174 232.392 303.39 234.45 298.309C240.427 283.553 258.668 284.275 257.612 279.875C255.47 270.956 232.589 282.619 234.221 278.981C247.647 249.054 265.682 227.108 322.141 237.427C328.225 238.539 316.981 217.668 323.8 218.853C336.27 221.02 366.568 227.212 384.15 257.085C386.247 260.648 416.267 253.912 410.934 259.716C406.121 264.955 403.212 270.088 403.359 274.962C403.58 282.246 408.957 290.415 409.337 298.928C410.774 331.186 415.739 375.48 376.72 400.671L373.423 374.513C373.423 374.513 404.967 346.239 394.243 332.573C380.48 315.034 361.271 330.915 359.21 342.885C359.21 342.885 356.079 352.43 350.978 343.162C347.439 336.733 354.923 320.598 339.898 309.514C333.251 304.61 288.678 309.514 268.062 288.512L265.682 330.091Z" fill="#161B36"/>
<path d="M343.751 261.473C343.604 261.473 343.459 261.438 343.329 261.371C308.647 243.623 284.467 254.666 284.226 254.78C283.925 254.926 283.569 254.899 283.293 254.709C283.018 254.52 282.865 254.196 282.894 253.862C282.923 253.528 283.129 253.236 283.433 253.096C283.679 252.978 308.684 241.552 344.175 259.713C344.558 259.909 344.757 260.342 344.656 260.76C344.555 261.179 344.181 261.474 343.751 261.473H343.751Z" fill="white"/>
<path d="M361.518 296.557C361.254 296.557 361.002 296.445 360.826 296.248C346.361 280.108 322.372 278.809 322.141 278.809C321.628 278.809 321.211 278.392 321.211 277.878C321.211 277.364 321.628 276.947 322.141 276.947C322.38 276.947 347.232 278.293 362.21 295.004C362.455 295.277 362.516 295.67 362.367 296.005C362.217 296.341 361.885 296.557 361.518 296.557V296.557Z" fill="white"/>
<ellipse cx="307.921" cy="331.205" rx="3.47815" ry="5.72702" fill="#161B36"/>
<ellipse cx="273.506" cy="333.585" rx="3.47815" ry="5.72702" fill="#161B36"/>
<path d="M300.733 308.297C301.969 306.904 303.67 305.821 308.771 306.13C313.872 306.44 321.601 311.238 319.901 312.476C318.201 313.715 313.099 309.536 309.08 310.929C305.061 312.322 302.753 313.467 301.402 312.709C299.702 311.754 300.138 308.967 300.733 308.297Z" fill="#161B36"/>
<path d="M278.626 306.876C277.006 305.958 275.047 305.482 270.319 307.424C265.591 309.366 259.823 316.406 261.831 317.029C263.84 317.651 267.321 312.046 271.574 312.065C275.827 312.084 278.38 312.423 279.414 311.268C280.716 309.815 279.404 307.318 278.626 306.876Z" fill="#161B36"/>
<g style="mix-blend-mode:overlay" opacity="0.6">
<path d="M286.17 369.835C284.376 369.901 282.597 369.487 281.015 368.637C279.978 368.056 279.256 367.04 279.048 365.869C278.662 363.442 281.14 359.686 284.172 355.387C284.943 354.36 285.649 353.287 286.286 352.172C286.903 350.849 286.727 338.794 286.2 327.904L288.058 327.813C288.24 331.59 289.094 350.552 287.972 352.959C287.295 354.179 286.533 355.349 285.691 356.461C283.781 359.169 280.586 363.699 280.883 365.576C281.008 366.211 281.415 366.754 281.989 367.05C284.659 368.2 287.664 368.293 290.4 367.312L290.969 369.085C289.417 369.58 287.799 369.833 286.17 369.835V369.835Z" fill="#030F1C"/>
</g>
<path d="M283.92 387.549C283.762 387 283.83 386.41 284.109 385.911C284.387 385.411 284.853 385.044 285.403 384.891C288.139 384.098 293.182 382.606 297.023 381.297C301.027 379.707 304.922 377.852 308.68 375.744C309.336 375.388 310.128 375.395 310.777 375.762C311.426 376.13 311.84 376.806 311.872 377.552C312.133 383.283 311.445 394.474 302.445 396.756C291.5 399.53 285.77 393.601 283.92 387.549Z" fill="#161B36"/>
<path d="M288.678 394.694C288.678 394.694 298.096 381.522 311.549 384.531C311.549 384.531 311.57 394.818 302.897 397.136C293.558 399.632 288.678 394.694 288.678 394.694Z" fill="#E55151"/>
<path d="M384.449 334.058C380.044 332.562 375.789 336.568 372.571 341.095L372.564 341.104C370.35 344.308 368.455 347.721 366.906 351.295C366.707 351.769 366.93 352.315 367.403 352.515C367.876 352.714 368.422 352.491 368.621 352.017C370.06 348.664 371.821 345.458 373.879 342.445C375.76 342.116 377.697 342.471 379.341 343.445C380.969 344.659 382.009 346.506 382.202 348.53C382.277 348.979 382.664 349.309 383.118 349.31C383.169 349.31 383.221 349.306 383.271 349.297C383.514 349.257 383.731 349.121 383.875 348.921C384.019 348.72 384.077 348.47 384.036 348.227C383.712 343.718 379.865 340.286 375.356 340.48C378.003 337.195 381.025 334.857 383.851 335.822C384.166 335.928 384.513 335.859 384.763 335.64C385.013 335.42 385.127 335.084 385.062 334.758C384.997 334.431 384.763 334.165 384.448 334.058L384.449 334.058Z" fill="#0B122D"/>
<g style="mix-blend-mode:overlay" opacity="0.6">
<path d="M304.447 427.086C304.447 427.086 331.242 414.606 339.898 405.525C339.898 405.525 337.899 430.007 320.203 447.214C302.508 464.42 304.447 450.516 304.447 450.516L304.447 427.086Z" fill="#030F1C"/>
</g>
<path d="M304.385 428.117C303.946 428.117 303.566 427.81 303.475 427.379C303.384 426.949 303.606 426.513 304.007 426.335C304.314 426.198 334.865 412.513 347.759 395.971C347.963 395.708 348.292 395.574 348.622 395.62C348.951 395.666 349.231 395.885 349.355 396.194C349.48 396.503 349.43 396.855 349.225 397.117C336.042 414.029 306.032 427.473 304.761 428.037C304.642 428.09 304.514 428.117 304.385 428.117Z" fill="#0B122D"/>
<path d="M475.546 818.815C465.037 778.823 466.477 758.541 467.714 735.01C468.95 711.479 457.829 547.636 476.37 517.035C477.195 503.825 452.5 437.073 437.63 446.255C407.456 464.885 388.979 463.367 388.979 463.367L380.502 431.579C370.85 454.21 351.315 471.118 327.557 477.403C311.691 470.17 304.472 452.221 304.472 452.221L290.869 468.321C290.869 468.321 228.623 495.155 218.729 508.366C208.836 521.576 227.833 672.879 228.211 717.671C228.455 746.676 225.52 780.233 224.707 817.989C226.578 843.859 207.394 871.006 221.203 882.391C265.77 919.133 483.79 882.391 483.79 882.391C483.442 860.955 480.676 839.628 475.546 818.815Z" fill="#B6D3F2"/>
<path d="M587.125 156.439C566.102 163.87 544.968 160.361 531.063 148.596C531.007 148.577 510.252 325.969 506.748 344.133C503.05 363.307 481.58 413.828 438.208 445.882C427.526 452.634 415.945 457.842 403.809 461.351C403.809 461.351 368.128 522.61 349.791 553.571C344.609 561.526 338.748 569.016 332.273 575.955L330.185 504.96L337.35 493.719C337.35 493.719 333.392 482.254 327.557 477.404L310.934 496.293L314.017 504.96L304.19 592.246C280.372 549.329 290.869 468.321 290.869 468.321C257.231 466.67 242.816 461.793 216.797 443.175V443.175C195.917 427.615 174.74 406.155 151.321 376.263C148.661 372.875 146.619 369.043 145.289 364.943C138.022 342.472 120.573 297.928 116.409 282.069C113.808 272.175 83.6153 172.345 81.1185 162.838C62.8775 179.558 45.564 185.131 27.9414 173.985C33.1481 201.391 54.2193 317.49 60.9235 343.465C62.9872 351.453 65.1069 359.231 67.2826 366.798C74.0881 390.559 81.3958 412.234 88.6475 431.769C103.932 462.848 129.964 494.952 154.732 521.506C173.829 541.912 193.995 561.287 215.145 579.55C216.272 580.511 217.146 581.252 217.767 581.772C219.696 612.374 227.12 694.243 228.026 710.332C229.095 729.313 225.66 789.828 224.913 809.936C224.166 830.045 220.022 842.273 215.931 864.02C211.84 885.767 233.362 892.546 233.362 892.546C261.367 902.208 303.511 898.721 303.511 898.721C363.919 897.642 424.17 892.184 483.791 882.391C483.791 882.391 480.996 842.568 472.623 806.851C464.251 771.135 467.814 675.496 471.391 643.226C472.484 633.371 471.619 609.554 469.894 581.234C470.914 579.859 569.628 446.778 581.063 387.449C588.12 350.832 587.163 156.402 587.125 156.439Z" fill="#E89256"/>
<g style="mix-blend-mode:overlay" opacity="0.6">
<path d="M290.869 468.321C290.869 468.321 277.843 550.27 309.213 600.016L344.064 660.601L346.766 875.581L336.174 660.964L252.507 561.578L277.072 525.087C277.072 525.087 259.18 500.849 265.77 479.839L290.869 468.321Z" fill="#030F1C"/>
</g>
<g style="mix-blend-mode:overlay" opacity="0.6">
<ellipse cx="323.888" cy="688.165" rx="5.46201" ry="5.47003" fill="#030F1C"/>
</g>
<g style="mix-blend-mode:overlay" opacity="0.6">
<ellipse cx="283.918" cy="688.165" rx="5.46199" ry="5.47003" fill="#030F1C"/>
</g>
<g style="mix-blend-mode:overlay" opacity="0.6">
<ellipse cx="323.888" cy="749.895" rx="5.46201" ry="5.47" fill="#030F1C"/>
</g>
<g style="mix-blend-mode:overlay" opacity="0.6">
<ellipse cx="283.918" cy="749.895" rx="5.46199" ry="5.47" fill="#030F1C"/>
</g>
<g style="mix-blend-mode:overlay" opacity="0.6">
<ellipse cx="323.888" cy="811.797" rx="5.46201" ry="5.47003" fill="#030F1C"/>
</g>
<g style="mix-blend-mode:overlay" opacity="0.6">
<ellipse cx="283.918" cy="811.797" rx="5.46199" ry="5.47003" fill="#030F1C"/>
</g>
<g style="mix-blend-mode:overlay" opacity="0.6">
<path d="M304.472 452.221C304.472 452.221 311.691 470.17 327.557 477.404L306.121 501.761L290.869 468.321L304.472 452.221Z" fill="white"/>
</g>
<g style="mix-blend-mode:overlay" opacity="0.6">
<path d="M380.502 431.579C370.849 454.21 351.314 471.118 327.557 477.404C337.038 486.486 339.511 501.761 339.511 501.761L388.978 463.367L380.502 431.579Z" fill="white"/>
</g>
<path d="M246.347 848.644C246.184 848.645 246.024 848.602 245.883 848.52C229.661 839.147 224.041 819.084 223.81 818.233C223.722 817.912 223.812 817.569 224.046 817.333C224.28 817.097 224.622 817.003 224.943 817.088C225.265 817.172 225.516 817.422 225.604 817.743C225.658 817.944 231.266 837.923 246.813 846.907C247.178 847.118 247.355 847.547 247.246 847.955C247.137 848.362 246.768 848.645 246.347 848.644Z" fill="#0B122D"/>
<g style="mix-blend-mode:overlay" opacity="0.6">
<path d="M339.511 501.761C339.511 501.761 409.389 499.847 419.894 455.474C402.302 464.186 388.978 463.367 388.978 463.367L339.511 501.761Z" fill="#030F1C"/>
</g>
<g style="mix-blend-mode:overlay" opacity="0.6">
<rect x="365.791" y="617.785" width="46.3754" height="6.901" fill="white"/>
</g>
<g style="mix-blend-mode:overlay" opacity="0.6">
<path d="M247.425 729.862C246.596 752.015 233.883 756.08 227.207 762.169C227.342 746.478 227.236 729.852 227.124 716.128C227.057 708.796 227.264 694.655 225.86 680.467C223.001 651.557 222.24 635.213 217.962 582.096C195.866 562.993 174.762 542.77 154.731 521.506C129.964 494.952 103.932 462.848 88.6471 431.768C81.3953 412.234 74.0878 390.559 67.2822 366.798C73.5485 367.17 85.1549 369.047 92.575 385.063C100.579 402.339 109.141 430.938 128.294 454.32C154.847 486.734 211.148 541.012 218.663 546.565C242.118 563.896 239.527 610.02 241.096 629.71C244.566 673.258 248.475 701.789 247.425 729.862Z" fill="white"/>
</g>
<path d="M221.668 625.629C221.208 625.628 220.818 625.292 220.749 624.837C214.549 583.61 217.49 553.784 217.52 553.488C217.573 552.976 218.03 552.604 218.541 552.657C219.052 552.709 219.423 553.167 219.371 553.679C219.34 553.972 216.425 583.581 222.588 624.559C222.665 625.068 222.315 625.542 221.807 625.619C221.761 625.626 221.714 625.629 221.668 625.629Z" fill="#0B122D"/>
<g style="mix-blend-mode:overlay" opacity="0.6">
<path d="M309.213 600.016L327.557 631.905C327.557 631.905 380.981 588.663 410.661 544.903L392.77 518.528L419.108 504.96C419.108 504.96 437.63 487.9 437.63 446.255C437.63 446.255 417.842 458.031 403.808 461.351C403.808 461.351 349.79 564.461 309.213 600.016Z" fill="#030F1C"/>
</g>
<g style="mix-blend-mode:overlay" opacity="0.6">
<path d="M469.869 581.266L515.778 514.965C503.606 520.014 446.247 553.273 434.499 580.03C421.811 608.924 427.598 650.197 440.935 706.125C457.892 777.231 431.398 824.502 405.127 852.366C382.821 876.024 336.115 882.339 303 898.669C378.448 900.114 483.862 882.374 483.862 882.374C483.862 882.374 484.2 851.557 472.695 806.138C463.125 768.358 467.429 709.999 469.481 666.885C470.477 636.689 473.956 641.999 469.869 581.266Z" fill="#030F1C"/>
</g>
<path fill-rule="evenodd" clip-rule="evenodd" d="M585.069 60.3953C585.069 60.3953 591.166 52.8085 597.506 58.527C600.32 61.074 600.718 73.1329 598.192 87.9047L598.183 87.9196C598.129 88.2368 598.064 88.9407 597.969 89.9659C597.212 98.1822 594.553 127.033 580.435 142.816C580.435 142.816 580.373 148.57 579.999 155.164L579.915 158.547C564.046 162.306 548.597 159.977 536.752 152.701L537.025 147.974C537.262 143.643 537.239 139.301 536.954 134.972C536.954 134.972 529.996 111.254 525.766 97.2509C525.766 97.2509 518.94 79.916 521.973 72.8559C523.983 68.5882 527.962 65.5848 532.612 64.8252C532.612 64.8252 525.207 16.6548 532.959 3.06846C539.049 -7.61698 541.99 11.3833 545.285 32.6676C546.23 38.7702 547.204 45.0606 548.289 50.8928C548.441 49.1385 551.55 41.9056 560.534 38.6754C567.837 36.0403 566.931 52.7583 566.931 52.7583C566.931 52.7583 574.599 38.7104 580.359 41.0347C586.784 43.6292 585.069 60.3953 585.069 60.3953ZM54.1192 15.8762C64.3365 27.7149 66.3254 76.4121 66.3254 76.4121C71.0347 76.2615 75.5163 78.442 78.3088 82.2426C82.6412 88.5864 79.2735 106.913 79.2735 106.913C78.7851 111.781 78.7387 116.703 78.6934 121.5C78.6033 131.047 78.5179 140.103 74.9643 147.28C75.0184 149.27 75.2375 151.252 75.6191 153.206L78.6897 164.977C65.0254 176.802 51.8525 182.17 38.6494 178.719L37.6412 172.15C36.0564 164.853 34.9072 158.984 34.9072 158.984C23.4253 151.514 18.6964 140.461 13.298 127.843C12.208 125.295 11.0907 122.684 9.88495 120.025L9.87541 120.024C8.59658 117.212 7.44262 114.422 6.41712 111.71L6.40485 111.697C1.08804 97.6883 -0.838726 85.7782 1.4335 82.7365C6.55693 75.9032 13.9969 82.1732 13.9969 82.1732C13.9969 82.1732 8.77862 65.5169 14.899 62.2669C22.1175 58.4336 30.3287 71.1839 30.3287 71.1839C30.3287 71.1839 27.8837 55.5107 35.5566 56.6893C44.9936 58.1278 47.778 64.0688 48.264 65.7609C48.2085 59.8286 47.9556 53.4682 47.7101 47.2977C46.8541 25.7762 46.09 6.56393 54.1192 15.8762Z" fill="#F47D7D"/>
<path d="M75.7332 96.8733C75.4427 96.4494 74.8644 96.3408 74.4403 96.6306C74.2896 96.7315 59.4086 106.797 50.5291 102.458C48.7341 101.775 47.3908 100.25 46.9392 98.3809C46.1039 94.0828 50.7652 88.8392 50.8124 88.7864C51.0365 88.5397 51.1118 88.1919 51.0097 87.8745C50.9076 87.5571 50.6438 87.3186 50.318 87.2493C49.9923 87.18 49.6545 87.2904 49.4324 87.5389C49.2145 87.7807 44.1046 93.5191 45.1124 98.7319C45.6696 101.179 47.3897 103.197 49.7156 104.132C51.5917 105.009 53.6433 105.445 55.7134 105.405C64.7927 105.404 74.9651 98.5264 75.4899 98.1672C75.9131 97.8767 76.0219 97.2981 75.7332 96.8733Z" fill="black"/>
<path d="M40.7414 90.4003L40.7333 90.3894L40.7305 90.3803L32.7789 74.8783C32.6279 74.5813 32.3298 74.3878 31.9974 74.3712C31.6649 74.3545 31.349 74.5172 31.1692 74.7977C30.9893 75.0782 30.9731 75.4336 31.1265 75.7293L39.0665 91.2088L39.0672 91.2113C39.1253 91.3314 44.7781 103.263 36.8156 107.598C35.1039 108.616 33.0404 108.857 31.141 108.259C26.5033 106.751 23.5062 100.671 23.3896 100.432L23.3891 100.43L16.4272 84.9874C16.2906 84.684 16.0028 84.4766 15.6721 84.4433C15.3415 84.41 15.0182 84.5559 14.8241 84.8261C14.63 85.0962 14.5946 85.4496 14.7311 85.753L21.6743 101.154C22.8925 104.546 25.1251 113.752 21.0122 115.977C20.1765 116.446 19.1806 116.534 18.2757 116.22C14.3807 114.978 11.0123 108.228 10.9777 108.16C10.8308 107.862 10.5362 107.665 10.2048 107.643C9.87348 107.621 9.55576 107.778 9.37135 108.055C9.18694 108.331 9.16386 108.686 9.3108 108.984C9.46151 109.29 13.0624 116.51 17.7091 117.993C18.2562 118.172 18.8278 118.265 19.4033 118.267C20.2759 118.264 21.1336 118.04 21.8965 117.615C25.6753 115.57 25.5736 110.118 24.8255 105.907C26.3341 107.77 28.3146 109.193 30.56 110.028C32.9459 110.794 35.5449 110.506 37.7054 109.235C45.3065 105.094 43.0149 95.1039 40.7414 90.4003Z" fill="black"/>
<path d="M48.1665 107.078C47.8143 107.293 39.5067 112.438 37.631 120.951C36.6813 125.763 37.8014 130.753 40.7161 134.694C41.0031 135.117 41.5774 135.23 42.0023 134.945C42.4272 134.661 42.5437 134.087 42.2632 133.659C39.6404 130.139 38.617 125.677 39.4431 121.363C41.1428 113.632 49.0544 108.717 49.1325 108.668C49.569 108.4 49.7068 107.829 49.4407 107.391C49.1746 106.953 48.6048 106.813 48.1665 107.078L48.1665 107.078Z" fill="black"/>
<path d="M555.487 82.6052C556.495 77.3924 551.385 71.6541 551.167 71.4122C550.823 71.0313 550.236 71.0015 549.855 71.3457C549.474 71.6899 549.444 72.278 549.787 72.6597C549.834 72.7125 554.496 77.9562 553.66 82.2543C553.209 84.1236 551.866 85.6496 550.07 86.3323C541.193 90.6649 526.308 80.6058 526.159 80.5039C525.885 80.3157 525.532 80.2884 525.232 80.4322C524.932 80.5761 524.732 80.8692 524.707 81.201C524.682 81.5329 524.835 81.853 525.11 82.0406C525.634 82.3997 535.805 89.2792 544.886 89.2792C546.956 89.3181 549.008 88.8827 550.884 88.0062C553.21 87.0709 554.93 85.0527 555.487 82.6052Z" fill="#030F1C"/>
<path d="M590.867 91.6106C590.407 91.3844 589.85 91.5732 589.622 92.0333C589.587 92.1015 586.219 98.8509 582.324 100.093C581.418 100.407 580.422 100.319 579.585 99.8511C575.465 97.6207 577.717 88.3762 578.933 85.0029C578.941 84.9819 578.937 84.9606 578.943 84.9395C578.946 84.9298 578.956 84.9255 578.959 84.9156L583.713 66.1703C583.795 65.8478 583.699 65.5057 583.461 65.2733C583.223 65.0408 582.88 64.9534 582.56 65.0439C582.24 65.1345 581.993 65.3892 581.911 65.712L577.181 84.3641C576.826 85.0733 573.903 90.6837 569.462 92.1306C567.562 92.7331 565.495 92.4936 563.782 91.4722C558.418 88.5508 559.762 83.2243 561.834 79.2709C562.776 77.4701 563.475 75.5517 563.913 73.5662L567.385 57.8514C567.458 57.526 567.351 57.1864 567.106 56.9609C566.861 56.7355 566.513 56.6587 566.196 56.7596C565.879 56.8604 565.639 57.1236 565.569 57.4495L562.097 73.1643C561.695 74.9883 561.054 76.7507 560.188 78.4053C556.76 84.9447 557.746 90.3038 562.892 93.1089C565.053 94.3783 567.651 94.6666 570.038 93.9018C572.284 93.0669 574.265 91.6435 575.774 89.7801C575.024 93.9909 574.922 99.4437 578.701 101.49C579.464 101.913 580.322 102.138 581.194 102.142C581.77 102.138 582.342 102.046 582.89 101.867C587.539 100.383 591.138 93.1635 591.289 92.857C591.515 92.3963 591.327 91.8385 590.867 91.6106V91.6106Z" fill="#030F1C"/>
<path d="M552.431 90.9513C551.993 90.6864 551.423 90.8264 551.157 91.2645C550.891 91.7025 551.029 92.2736 551.465 92.5416C551.543 92.5907 559.457 97.5053 561.156 105.238C561.982 109.551 560.959 114.013 558.336 117.533C558.056 117.96 558.172 118.535 558.597 118.819C559.022 119.103 559.596 118.991 559.883 118.567C562.798 114.626 563.918 109.636 562.969 104.825C561.091 96.3114 552.783 91.1659 552.431 90.9513Z" fill="#030F1C"/>
</svg>
